<svg xmlns="http://www.w3.org/2000/svg" viewBox="0 0 1600 1000"><defs><radialGradient id="g"><stop offset="0" stop-color="#e0bfae" stop-opacity=".95"/><stop offset=".28" stop-color="#7a1f35" stop-opacity=".42"/><stop offset="1" stop-color="#090709" stop-opacity="0"/></radialGradient><linearGradient id="b" x1="0" x2="1"><stop stop-color="#090709"/><stop offset=".5" stop-color="#29121d"/><stop offset="1" stop-color="#090709"/></linearGradient></defs><rect width="1600" height="1000" fill="#090709"/><ellipse cx="800" cy="500" rx="500" ry="420" fill="url(#g)"/><path d="M90 110 L610 300 L610 700 L90 890 Z" fill="url(#b)" stroke="#7a1f35" stroke-width="4"/><path d="M1510 110 L990 300 L990 700 L1510 890 Z" fill="url(#b)" stroke="#7a1f35" stroke-width="4"/><path d="M160 145 L560 315 L560 685 L160 855 Z M1440 145 L1040 315 L1040 685 L1440 855 Z" fill="none" stroke="#38333c" stroke-width="3"/><circle cx="800" cy="500" r="190" fill="none" stroke="#9c2d49" stroke-opacity=".65" stroke-width="2"/><circle cx="800" cy="500" r="82" fill="#e0bfae" fill-opacity=".08" stroke="#e0bfae" stroke-opacity=".75" stroke-width="3"/><path d="M800 70V930 M370 500H1230" stroke="#e0bfae" stroke-opacity=".22" stroke-width="2"/><path d="M260 760 L520 620 M1340 760 L1080 620" stroke="#9c2d49" stroke-opacity=".5" stroke-width="5"/><text x="800" y="940" text-anchor="middle" fill="#b2aa98" font-family="Georgia,serif" font-size="28" letter-spacing="7">LEI • DESVIO • CONVERGÊNCIA</text></svg>