<svg xmlns="http://www.w3.org/2000/svg" viewBox="0 0 1600 900" role="img" aria-labelledby="t d">
<title id="t">A Heresia que Nunca Foi Conhecida</title>
<desc id="d">Composição dark romanticism abstrata de uma estrutura subterrânea escura atravessada por uma luz anterior, sugerindo preservação invisível, verdade e consciência.</desc>
<defs>
 <radialGradient id="bg" cx="72%" cy="35%" r="75%"><stop offset="0" stop-color="#5b2438"/><stop offset=".34" stop-color="#241a24"/><stop offset="1" stop-color="#08080b"/></radialGradient>
 <radialGradient id="light" cx="50%" cy="50%" r="50%"><stop offset="0" stop-color="#f2dfc6" stop-opacity=".98"/><stop offset=".2" stop-color="#d7b48d" stop-opacity=".62"/><stop offset="1" stop-color="#9a5570" stop-opacity="0"/></radialGradient>
 <linearGradient id="stone" x1="0" y1="0" x2="1" y2="1"><stop stop-color="#302630"/><stop offset=".55" stop-color="#17141b"/><stop offset="1" stop-color="#09090c"/></linearGradient>
 <linearGradient id="root" x1="0" y1="0" x2="0" y2="1"><stop stop-color="#a66a76"/><stop offset="1" stop-color="#26151f"/></linearGradient>
 <filter id="blur"><feGaussianBlur stdDeviation="34"/></filter>
 <filter id="glow"><feGaussianBlur stdDeviation="12"/></filter>
</defs>
<rect width="1600" height="900" fill="url(#bg)"/>
<ellipse cx="1190" cy="280" rx="430" ry="330" fill="url(#light)" filter="url(#blur)"/>
<path d="M0 700 C190 610 310 650 455 585 C615 514 680 570 805 522 C965 460 1100 535 1260 468 C1400 410 1510 445 1600 390 L1600 900 L0 900Z" fill="#07070a" opacity=".96"/>
<path d="M0 820 C230 710 360 750 505 665 C690 555 795 660 940 600 C1110 530 1235 620 1380 548 C1490 495 1560 520 1600 490" fill="none" stroke="url(#root)" stroke-width="22" opacity=".8"/>
<g fill="url(#stone)" stroke="#4b3945" stroke-width="3" opacity=".94">
 <path d="M95 165 L420 110 L535 180 L510 420 L175 455 L72 360 Z"/>
 <path d="M510 180 L790 95 L890 175 L855 410 L510 420 Z"/>
 <path d="M890 175 L1190 120 L1295 225 L1260 430 L855 410 Z"/>
 <path d="M1260 430 L1505 350 L1580 470 L1495 650 L1240 610 Z"/>
</g>
<g fill="none" stroke="#6c4a57" stroke-width="5" opacity=".6">
 <path d="M150 255 L465 225"/><path d="M570 215 L820 190"/><path d="M925 245 L1225 215"/><path d="M190 350 L475 330"/><path d="M560 330 L835 305"/>
</g>
<ellipse cx="1115" cy="300" rx="105" ry="145" fill="url(#light)" filter="url(#glow)" opacity=".7"/>
<path d="M1115 175 C1045 255 1055 355 1115 435 C1175 355 1185 255 1115 175Z" fill="#ead8bf" opacity=".18" stroke="#e7c7ac" stroke-width="3"/>
<path d="M1115 240 C1080 290 1085 345 1115 390 C1145 345 1150 290 1115 240Z" fill="#f2dfc6" opacity=".52"/>
<g fill="none" stroke="#b77b88" stroke-width="8" stroke-linecap="round" opacity=".52">
 <path d="M1115 390 C1025 475 1000 545 1010 650"/><path d="M1115 390 C1185 475 1220 545 1210 675"/>
 <path d="M1105 455 C1050 505 955 520 875 575"/><path d="M1125 465 C1190 510 1280 535 1375 590"/>
</g>
<g fill="#e3c6b3" opacity=".2">
 <circle cx="970" cy="140" r="3"/><circle cx="1035" cy="105" r="5"/><circle cx="1250" cy="150" r="3"/><circle cx="1320" cy="230" r="4"/><circle cx="890" cy="285" r="3"/>
</g>
<rect x="35" y="35" width="1530" height="830" fill="none" stroke="#6f4253" stroke-width="2" opacity=".45"/>
</svg>